<?xml version='1.0' encoding='UTF-8'?>
<svg x="0px" y="0px" viewBox="0 0 32 32" version="1.1" xmlns="http://www.w3.org/2000/svg" xmlns:xlink="http://www.w3.org/1999/xlink" xml:space="preserve" id="Layer_1" style="enable-background:new 0 0 32 32">
  <style type="text/css">
	.Black{fill:#727272;}
	.Blue{fill:#1177D7;}
	.Green{fill:#039C23;}
	.Yellow{fill:#FFB115;}
	.Red{fill:#D11C1C;}
	.White{fill:#FFFFFF;}
	.st0{opacity:0.5;}
	.st1{opacity:0.75;}
</style>
  <g id="ImageAnnotation">
    <circle cx="21" cy="9" r="3" class="Yellow" />
    <polygon points="20,20 10,10 6,14 6,20  " class="Green" />
    <g class="st0">
      <polygon points="22,20 18,16 20,14 26,20   " class="Green" />
    </g>
    <path d="M29,2H3C2.5,2,2,2.5,2,3v20c0,0.5,0.5,1,1,1h5v8l8-8h13c0.5,0,1-0.5,1-1V3C30,2.5,29.5,2,29,2z M28,22H15.2   L10,27.2V22H4V4h24V22z" class="Black" />
  </g>
</svg>